<svg width="20" height="18" viewBox="0 0 20 18" fill="none" xmlns="http://www.w3.org/2000/svg">
<path fill-rule="evenodd" clip-rule="evenodd" d="M5.98523 8C7.86619 8 9.44422 6.70444 9.8739 4.95789L15.9326 4.95789V3.06316L9.87902 3.06316C9.45689 1.30597 7.87373 0 5.98523 0C4.14227 0 2.59011 1.24375 2.12399 2.93684L0 2.93684V4.95789H2.09656C2.52624 6.70444 4.10428 8 5.98523 8ZM5.98523 6C7.09097 6 7.98734 5.10457 7.98734 4C7.98734 2.89543 7.09097 2 5.98523 2C4.8795 2 3.98312 2.89543 3.98312 4C3.98312 5.10457 4.8795 6 5.98523 6Z" fill="url(#paint0_linear)" fill-opacity="0.3"/>
<path d="M20 5L17.9979 5V3H20V5Z" fill="url(#paint1_linear)" fill-opacity="0.3"/>
<path fill-rule="evenodd" clip-rule="evenodd" d="M13.9937 18C15.8822 18 17.4653 16.694 17.8875 14.9369H19.9789V13.0421H17.8824C17.4527 11.2956 15.8747 10 13.9937 10C12.1127 10 10.5347 11.2956 10.105 13.0421H0V14.9369H10.0999C10.522 16.694 12.1052 18 13.9937 18ZM13.9937 16C15.0994 16 15.9958 15.1046 15.9958 14C15.9958 12.8954 15.0994 12 13.9937 12C12.888 12 11.9916 12.8954 11.9916 14C11.9916 15.1046 12.888 16 13.9937 16Z" fill="url(#paint2_linear)" fill-opacity="0.3"/>
<defs>
<linearGradient id="paint0_linear" x1="-7.27082" y1="-8.43157" x2="32.2564" y2="19.2444" gradientUnits="userSpaceOnUse">
<stop stop-color="#57636E"/>
<stop offset="0.391276" stop-color="#EBEFF3"/>
<stop offset="0.557853" stop-color="#AFBBC7"/>
<stop offset="0.873402" stop-color="#2D3134"/>
</linearGradient>
<linearGradient id="paint1_linear" x1="-7.27082" y1="-8.43157" x2="32.2564" y2="19.2444" gradientUnits="userSpaceOnUse">
<stop stop-color="#57636E"/>
<stop offset="0.391276" stop-color="#EBEFF3"/>
<stop offset="0.557853" stop-color="#AFBBC7"/>
<stop offset="0.873402" stop-color="#2D3134"/>
</linearGradient>
<linearGradient id="paint2_linear" x1="-7.27082" y1="-8.43157" x2="32.2564" y2="19.2444" gradientUnits="userSpaceOnUse">
<stop stop-color="#57636E"/>
<stop offset="0.391276" stop-color="#EBEFF3"/>
<stop offset="0.557853" stop-color="#AFBBC7"/>
<stop offset="0.873402" stop-color="#2D3134"/>
</linearGradient>
</defs>
</svg>
