<svg width="16" height="18" viewBox="0 0 16 18" fill="none" xmlns="http://www.w3.org/2000/svg">
<path fill-rule="evenodd" clip-rule="evenodd" d="M6.22223 0V1.79999H9.77779V0H11.5556V1.79999H15.1111C15.602 1.79999 16 2.20294 16 2.69999V17.1C16 17.5971 15.602 18 15.1111 18H14.2222L14.2222 9L1.77779 9L1.77778 16.2H12.4444V18H0.888889C0.39797 18 0 17.5971 0 17.1V2.69999C0 2.20294 0.397969 1.79999 0.888889 1.79999H4.44445V0H6.22223ZM6.22223 5.4H4.44445V3.59999H1.77778V7.2L14.2222 7.2V3.59999H11.5556V5.4H9.77779V3.59999H6.22223V5.4Z" fill="url(#paint0_linear)" fill-opacity="0.3"/>
<defs>
<linearGradient id="paint0_linear" x1="-6.31579" y1="-6.11999" x2="22.3758" y2="24.3965" gradientUnits="userSpaceOnUse">
<stop stop-color="#57636E"/>
<stop offset="0.391276" stop-color="#EBEFF3"/>
<stop offset="0.557853" stop-color="#AFBBC7"/>
<stop offset="0.873402" stop-color="#2D3134"/>
</linearGradient>
</defs>
</svg>
